<svg xmlns="http://www.w3.org/2000/svg" width="48.443" height="29.869" viewBox="0 0 48.443 29.869">
  <g id="behance" transform="translate(0 -87.888)">
    <path id="Path_551" data-name="Path 551" d="M20.5,100.437a8.1,8.1,0,0,0,1.29-4.531,8.224,8.224,0,0,0-8.26-8.017H1.058A1.058,1.058,0,0,0,0,88.946v27.431a1.058,1.058,0,0,0,1.058,1.058H14.992a9.353,9.353,0,0,0,5.51-17ZM5.472,93.36h8.166a2.682,2.682,0,1,1,0,5.364H5.472Zm9.641,18.6H5.472V104.2h9.641a3.883,3.883,0,0,1,0,7.766Z" transform="translate(0 0)" fill="#0067ff"/>
    <path id="Path_552" data-name="Path 552" d="M268.482,162.892a11.228,11.228,0,1,0-11.222,11.584,11.12,11.12,0,0,0,9.333-5.149,11.7,11.7,0,0,0,.707-1.255.475.475,0,0,0-.428-.681l-5.517-.014a.466.466,0,0,0-.325.135,5.22,5.22,0,0,1-3.77,1.492,5.851,5.851,0,0,1-5.612-4.784h15.736a1.1,1.1,0,0,0,1.1-1.1Zm-11.222-6.111a5.672,5.672,0,0,1,4.806,2.763h-9.613A5.672,5.672,0,0,1,257.259,156.78Z" transform="translate(-220.039 -56.719)" fill="#0067ff"/>
    <path id="Path_553" data-name="Path 553" d="M305.01,103.072h-9.954a.841.841,0,0,1-.841-.841v-2.5a.841.841,0,0,1,.841-.841h9.954a.841.841,0,0,1,.841.841v2.5A.841.841,0,0,1,305.01,103.072Z" transform="translate(-263.126 -9.842)" fill="#0067ff"/>
  </g>
</svg>
