<svg xmlns="http://www.w3.org/2000/svg" width="31" height="28.179" viewBox="0 0 31 28.179">
  <g id="Group_555" data-name="Group 555" transform="translate(-0.278 -23.596)">
    <circle id="Ellipse_38" data-name="Ellipse 38" cx="1.5" cy="1.5" r="1.5" transform="translate(14.278 23.596)" fill="#fdaf01"/>
    <circle id="Ellipse_39" data-name="Ellipse 39" cx="1" cy="1" r="1" transform="translate(29.278 30.596)" fill="#fdaf01"/>
    <circle id="Ellipse_40" data-name="Ellipse 40" cx="1" cy="1" r="1" transform="translate(0.278 30.596)" fill="#fdaf01"/>
    <path id="Path_577" data-name="Path 577" d="M10.625,66.607H34.614l2.593-11.673a1.329,1.329,0,0,0-2.035-1.394L28.45,58.021l-4.643-9.286a1.329,1.329,0,0,0-2.377,0l-4.643,9.286L10.066,53.54a1.329,1.329,0,0,0-2.035,1.394Z" transform="translate(-6.601 -20.149)" fill="#fdaf01"/>
    <path id="Path_578" data-name="Path 578" d="M24,168v2.658a1.329,1.329,0,0,0,1.329,1.329H46.594a1.329,1.329,0,0,0,1.329-1.329V168Z" transform="translate(-19.943 -120.212)" fill="#fdaf01"/>
  </g>
</svg>
