<svg id="download" xmlns="http://www.w3.org/2000/svg" width="12.613" height="18.92" viewBox="0 0 12.613 18.92">
  <g id="Group_31" data-name="Group 31" transform="translate(0)">
    <g id="Group_30" data-name="Group 30" transform="translate(0)">
      <path id="Path_8" data-name="Path 8" d="M91.083,15.536h0c.018.018.037.035.057.052l.028.021.034.025.034.021.032.019.036.017.034.016.035.013.037.013.036.009.039.01.042.006.034,0a.793.793,0,0,0,.156,0l.034,0,.042-.006.039-.01.036-.009.037-.013.035-.013.034-.016.036-.017.032-.019.034-.021.034-.025.028-.021q.03-.025.057-.052h0l5.518-5.518A.788.788,0,0,0,96.6,8.9l-4.173,4.173V.788a.788.788,0,0,0-1.577,0V13.075L86.679,8.9a.788.788,0,0,0-1.115,1.115Z" transform="translate(-85.334)" fill="#14323f"/>
      <path id="Path_9" data-name="Path 9" d="M97.159,469.333H86.122a.788.788,0,0,0,0,1.577H97.159a.788.788,0,0,0,0-1.577Z" transform="translate(-85.334 -451.99)" fill="#14323f"/>
    </g>
  </g>
</svg>
