<svg id="dribble_1_" data-name="dribble (1)" xmlns="http://www.w3.org/2000/svg" width="44.887" height="44.887" viewBox="0 0 44.887 44.887">
  <path id="Path_537" data-name="Path 537" d="M415,56.8c.116.092.226.2.341.292v0A1.817,1.817,0,0,0,415,56.8Z" transform="translate(-378.617 -51.82)" fill="#ff7cb9"/>
  <path id="Path_538" data-name="Path 538" d="M45.709,39.43a23,23,0,0,1-.237,2.709l-6.505,6.707-6.6,10.52a20.078,20.078,0,0,1-2.578.973l-6.523-6.154-1.42-1.341L11.693,58.077a21.872,21.872,0,0,1-2.709-1.92l-2.5-11.914L.9,36.879c.105-.894.237-1.762.421-2.63l9.4-6.47,2-8.521A18.5,18.5,0,0,1,15.27,18.1l8,2.42,3.156.973,11.125.289A18.076,18.076,0,0,1,39.73,23.86l-.105,9.416Z" transform="translate(-0.822 -16.513)" fill="#fa5e97"/>
  <path id="Path_539" data-name="Path 539" d="M278.443,64.609a23,23,0,0,1-.237,2.709L271.7,74.025l-6.6,10.52a20.079,20.079,0,0,1-2.578.973L256,79.364V45.7l3.156.973,11.125.289a18.077,18.077,0,0,1,2.183,2.078l-.105,9.416Z" transform="translate(-233.557 -41.693)" fill="#d94f88"/>
  <path id="Path_540" data-name="Path 540" d="M20.648,45.9a57.358,57.358,0,0,0,6.259-1.631A53.286,53.286,0,0,0,17.1,31.3,22.531,22.531,0,0,0,5.7,46.291,38.685,38.685,0,0,0,20.648,45.9Z" transform="translate(-5.2 -28.556)" fill="#ff7cb9"/>
  <path id="Path_541" data-name="Path 541" d="M187.078,5.269l-.368,1.447c-.579,2.314-5.47,5.628-11.888,8.022l-.289.105c-.552-1.026-1.131-2.052-1.736-3.025a55.185,55.185,0,0,0-8-10.231A21.878,21.878,0,0,1,172.8,0a22.4,22.4,0,0,1,13.44,4.585A6.846,6.846,0,0,1,187.078,5.269Z" transform="translate(-150.353)" fill="#ff7cb9"/>
  <path id="Path_542" data-name="Path 542" d="M25.2,211.644c-.947.342-1.867.71-2.762,1.131-7.627,3.419-13.308,9.1-14.2,14.518l-.079.473A22.44,22.44,0,0,1,0,210.566c0-.71.026-1.394.079-2.078a34.409,34.409,0,0,0,6.321.552,49.343,49.343,0,0,0,9.573-1,61.227,61.227,0,0,0,6.47-1.683l.473-.158Q24.179,208.843,25.2,211.644Z" transform="translate(0 -188.123)" fill="#ff7cb9"/>
  <path id="Path_543" data-name="Path 543" d="M141.031,314.331a21.369,21.369,0,0,1-18.095-2.262,5.5,5.5,0,0,1-.026-1.973c.684-4.182,5.418-8.916,11.6-12.019a32.13,32.13,0,0,1,3.63-1.578A62.48,62.48,0,0,1,141.031,314.331Z" transform="translate(-112.065 -270.505)" fill="#ff7cb9"/>
  <path id="Path_544" data-name="Path 544" d="M341.7,276.358A22.472,22.472,0,0,1,328.6,293.585a65.454,65.454,0,0,0-3-17.648C331.491,274.306,337.076,274.49,341.7,276.358Z" transform="translate(-297.055 -250.732)" fill="#ff637b"/>
  <path id="Path_545" data-name="Path 545" d="M309.1,98.9v.473c-5.023-1.867-10.976-1.946-17.183-.184-.684-1.894-1.473-3.735-2.314-5.523,4.313-1.631,12.388-5.365,13.519-9.863A22.315,22.315,0,0,1,309.1,98.9Z" transform="translate(-264.211 -76.454)" fill="#ff637b"/>
  <path id="Path_546" data-name="Path 546" d="M258.762,211.643c-.947.342-1.867.71-2.762,1.131v-6.417l.473-.158Q257.736,208.842,258.762,211.643Z" transform="translate(-233.557 -188.122)" fill="#fa5e97"/>
  <path id="Path_547" data-name="Path 547" d="M259.63,296.5a62.479,62.479,0,0,1,2.893,17.832A22.281,22.281,0,0,1,256,315.392V298.077A32.151,32.151,0,0,1,259.63,296.5Z" transform="translate(-233.557 -270.505)" fill="#fa5e97"/>
  <path id="Path_548" data-name="Path 548" d="M257.736,14.842c-.552-1.026-1.131-2.052-1.736-3.025V0a22.4,22.4,0,0,1,13.44,4.585,6.849,6.849,0,0,1,.842.684l-.368,1.447c-.579,2.314-5.47,5.628-11.888,8.022Z" transform="translate(-233.557)" fill="#fa5e97"/>
  <path id="Path_549" data-name="Path 549" d="M341.7,276.358A22.472,22.472,0,0,1,328.6,293.585a65.454,65.454,0,0,0-3-17.648C331.491,274.306,337.076,274.49,341.7,276.358Z" transform="translate(-297.055 -250.732)" fill="#fa5e97"/>
  <path id="Path_550" data-name="Path 550" d="M309.1,98.9v.473c-5.023-1.867-10.976-1.946-17.183-.184-.684-1.894-1.473-3.735-2.314-5.523,4.313-1.631,12.388-5.365,13.519-9.863A22.315,22.315,0,0,1,309.1,98.9Z" transform="translate(-264.211 -76.454)" fill="#fa5e97"/>
</svg>
