<svg id="facebook" xmlns="http://www.w3.org/2000/svg" width="56.422" height="56.422" viewBox="0 0 56.422 56.422">
  <path id="Path_10" data-name="Path 10" d="M56.422,28.211A28.211,28.211,0,1,1,28.211,0,28.211,28.211,0,0,1,56.422,28.211Zm0,0" fill="#4a7aff"/>
  <path id="Path_11" data-name="Path 11" d="M157.813,123.406a28.21,28.21,0,0,0,26.973-28.182c0-.11,0-.219,0-.329L165.2,75.313,144.262,97.2l11.633,11.633-5.364,7.293Zm0,0" transform="translate(-128.364 -67.013)" fill="#0053bf"/>
  <path id="Path_12" data-name="Path 12" d="M165.2,71.593v6.388s-7.334-1.065-7.334,3.667V86.38h6.624l-.828,7.216h-5.8V112.4h-7.334V93.6l-6.27-.118v-7.1h6.151V80.938s-.406-8.095,7.571-9.582A21.313,21.313,0,0,1,165.2,71.593Zm0,0" transform="translate(-128.361 -63.294)" fill="#fff"/>
  <path id="Path_13" data-name="Path 13" d="M264.308,77.981V71.593a21.313,21.313,0,0,0-7.216-.236,11.184,11.184,0,0,0-1.448.369V112.4h1.329V93.6h5.8l.828-7.216h-6.624V81.648C256.974,76.917,264.308,77.981,264.308,77.981Zm0,0" transform="translate(-227.473 -63.294)" fill="#dce1eb"/>
</svg>
