<svg xmlns="http://www.w3.org/2000/svg" width="45.746" height="54.757" viewBox="0 0 45.746 54.757">
  <g id="freepik" transform="translate(-58.029)">
    <g id="Group_364" data-name="Group 364" transform="translate(58.029 0)">
      <path id="Path_557" data-name="Path 557" d="M67.817,369.9l-.967-.257a1.112,1.112,0,0,0,.045-.582,6.054,6.054,0,0,0-2.53-3.791,5.314,5.314,0,0,0-1.714-1.1l-1.382,3.2s2.976,1.261,1.9,3.149c0,0-.838,1.586-3.557-.083l-1.586,2.87a4.48,4.48,0,0,0,3.187,1.775,7.5,7.5,0,0,0,3.829-.408.536.536,0,0,0,.34-.257l1.518.151Z" transform="translate(-58.029 -335.899)" fill="#1367ff"/>
      <path id="Path_558" data-name="Path 558" d="M182.752,440.366l-1.986-.514-.861,4.539,2.039.219Z" transform="translate(-170.442 -405.698)" fill="#1367ff"/>
      <path id="Path_559" data-name="Path 559" d="M489.314,445.618l.793,4.237,2.054-.189-.876-4.562Z" transform="translate(-455.826 -410.543)" fill="#1367ff"/>
      <path id="Path_560" data-name="Path 560" d="M513.024,121.56l2.847-1.5a37.41,37.41,0,0,0-1.692-3.384c.665-.279,1.1-.536,1.1-1.2a2.872,2.872,0,0,1,.083-1.2,1.294,1.294,0,0,0,.748.257,1.239,1.239,0,1,0-1.239-1.239v.128c-.385.514-.211,1.284-.211,1.737,0,.514-.514.6-.944.725v-.023a11.209,11.209,0,0,0-3.557-3.489l-1.775,1.881a39.135,39.135,0,0,1,2.787,3.489A18.815,18.815,0,0,1,513.024,121.56Z" transform="translate(-473.41 -103.358)" fill="#1367ff"/>
      <path id="Path_561" data-name="Path 561" d="M289.253,6.322a36.583,36.583,0,0,1,6.125.212l.34-1.329a10.8,10.8,0,0,0-4.97-.921l-.045-.619a1.762,1.762,0,0,0,1.692-1.843A1.779,1.779,0,0,0,290.575,0a1.847,1.847,0,0,0-1.8,1.82A1.915,1.915,0,0,0,290,3.558l.068.748a16.528,16.528,0,0,0-1.9.234,8.993,8.993,0,0,0-3.406,1.39l.491,1.39A10.329,10.329,0,0,1,289.253,6.322Z" transform="translate(-267.154 0)" fill="#1367ff"/>
      <path id="Path_562" data-name="Path 562" d="M531.981,379.644c-.431-.876-.876-1.737-1.307-2.545a14.985,14.985,0,0,1-1.624.642,2.057,2.057,0,0,1-2.228-.816,1.887,1.887,0,0,1,.665-2.205,1.8,1.8,0,0,1,.325-.257c.34-.211.687-.408,1.072-.642-.453-1.027-.876-2.054-1.352-3.127-.211.106-.362.2-.491.257a6.641,6.641,0,0,0-3.467,4.328,2.605,2.605,0,0,0-.045.725l-1.239.325.876,4.622,1.865-.2a.547.547,0,0,0,.385.257,19.549,19.549,0,0,0,2.251.468,5.1,5.1,0,0,0,4.131-1.39A.629.629,0,0,0,531.981,379.644Z" transform="translate(-486.242 -341.91)" fill="#1367ff"/>
      <path id="Path_563" data-name="Path 563" d="M147.277,107.615a.732.732,0,0,0,.642.665,50.967,50.967,0,0,0,10.128,1.586c2.379.128,4.751.023,7.13-.083a33.832,33.832,0,0,0,8.753-1.647,29.872,29.872,0,0,0,6.488-2.915c-.921-3.7-3.535-9.056-6.956-11.986a12.581,12.581,0,0,0-6.9-3,23.756,23.756,0,0,0-8.738.921,16.335,16.335,0,0,0-7.364,4.26C147.171,98.877,146.507,103.054,147.277,107.615ZM170.849,95.41A3.116,3.116,0,0,1,174,98.817a3.287,3.287,0,0,1-3.149,3.406c-1.737,0-3.127-1.156-3.15-3.406A3.379,3.379,0,0,1,170.849,95.41Zm-13.383.068a5.31,5.31,0,1,1-5.355,5.309A5.336,5.336,0,0,1,157.466,95.478Z" transform="translate(-140.079 -83.16)" fill="#1367ff"/>
      <path id="Path_564" data-name="Path 564" d="M67.945,138.559a1.683,1.683,0,0,0,.325-.045,1.322,1.322,0,0,0,.468.128c.9.106.9-.325,1.224.491a4.66,4.66,0,0,0,.687,1.11,9.463,9.463,0,0,0-1.239,4.471l2.976,1.239a15.364,15.364,0,0,1,.2-3.127V142.8h0c.083-.43.2-.876.325-1.307a12.67,12.67,0,0,1,2.674-4.086l-1.193-1.035a10.56,10.56,0,0,0-3.3,3.127h0a.07.07,0,0,1-.023.045c-.279-.363-.34-.967-.619-1.39-.34-.491-.453-.212-1.284-.279a.258.258,0,0,1-.128-.023,1.193,1.193,0,0,0,.128-.536,1.239,1.239,0,0,0-2.477,0A1.259,1.259,0,0,0,67.945,138.559Z" transform="translate(-66.012 -125.516)" fill="#1367ff"/>
      <path id="Path_565" data-name="Path 565" d="M177.766,633.855l10.687.9c.151-.793-.982-1.9-.982-1.9V631.5h0a19.448,19.448,0,0,0-6.548-1.39l.234.967A5.169,5.169,0,0,0,177.766,633.855Z" transform="translate(-168.469 -581.182)" fill="#1367ff"/>
      <path id="Path_566" data-name="Path 566" d="M172.513,683.673H183.6v-.581l-10.687-.944C172.664,682.328,172.513,683.673,172.513,683.673Z" transform="translate(-163.624 -629.18)" fill="#1367ff"/>
      <path id="Path_567" data-name="Path 567" d="M174.325,322.786c1.994-1,6.676-1.48,6.676-1.48a5.337,5.337,0,0,0,.023-1.156c.212-.083.431-.174.642-.257.408-.174.559-.34.431-.816-.431-1.692-.748-3.429-1.224-5.1-.174-.6-.34-1.178-.536-1.752l.838-.083-.793-4.154-1.352.34c-.151-.431-.106-.453.468-.725a13.545,13.545,0,0,0,7-6.571,10.678,10.678,0,0,0,1.11-5.332c-10.513,5.612-21.366,5.906-32.6,2.674a12.473,12.473,0,0,0,7.673,9.826l-2.356-.6-.793,4.154,1.329.128a33.44,33.44,0,0,0-1.82,5.929c-.2.944-.2.944.642,1.39.083.045.174.083.257.128a11.151,11.151,0,0,0,0,1.752s4.69.468,6.677,1.48c0,0,.083-1.072.3-1.1a33.229,33.229,0,0,0,5.506.34l1.563-.068C174.242,321.736,174.325,322.786,174.325,322.786Zm-5.732-3.731-2.613-4.131,1.586-4.856,6-.77,2.787,3.467-1.239,5.544Z" transform="translate(-147.475 -272.741)" fill="#1367ff"/>
      <path id="Path_568" data-name="Path 568" d="M394.225,634.52v1.367s-1.133,1.133-.982,1.9l10.687-.9a5.166,5.166,0,0,0-3.384-2.8l.234-.967A20.2,20.2,0,0,0,394.225,634.52Z" transform="translate(-367.202 -583.962)" fill="#1367ff"/>
      <path id="Path_569" data-name="Path 569" d="M404,685.551l-10.687.944v.582H404.4C404.383,687.069,404.255,685.725,404,685.551Z" transform="translate(-367.277 -632.32)" fill="#1367ff"/>
      <path id="Path_570" data-name="Path 570" d="M319.894,504.16l-1.669.257-.151-1.1,1.926-.574-.325-.838-2.719.748.9,5.015,1.284-.385-.468-1.949,1.48-.408Z" transform="translate(-296.851 -462.937)" fill="#1367ff"/>
      <path id="Path_571" data-name="Path 571" d="M369.942,501.324h-1.11l-.325,5.355h1.329v-.967a1.833,1.833,0,0,0,2.137-2.077A1.958,1.958,0,0,0,369.942,501.324Zm-.4,3.233v-1.994l1.329.083.3,1.9h-1.631Z" transform="translate(-344.399 -462.397)" fill="#1367ff"/>
    </g>
  </g>
</svg>
