<svg xmlns="http://www.w3.org/2000/svg" width="78.995" height="78.995" viewBox="0 0 78.995 78.995">
  <path id="move" d="M54.618,9.257A9.267,9.267,0,0,0,45.36,0H9.257A9.267,9.267,0,0,0,0,9.257v36.1a9.267,9.267,0,0,0,9.257,9.257H24.069v6.171H30.24V54.618H45.36a9.267,9.267,0,0,0,9.257-9.257V30.549h6.017V24.377H54.618Zm-6.171,36.1a3.089,3.089,0,0,1-3.086,3.086H9.257A3.089,3.089,0,0,1,6.171,45.36V9.257A3.089,3.089,0,0,1,9.257,6.171h36.1a3.089,3.089,0,0,1,3.086,3.086ZM72.824,66.652H79v6.171A6.172,6.172,0,0,1,72.824,79H66.806V72.824h6.017Zm-30.7,6.171h6.171V79H42.12Zm12.343,0h6.171V79H54.463ZM79,30.549V36.72H72.824V30.549H66.806V24.377h6.017A6.172,6.172,0,0,1,79,30.549ZM72.824,42.583H79v6.171H72.824Zm0,12.034H79v6.171H72.824ZM30.24,72.824h6.017V79H30.24a6.172,6.172,0,0,1-6.171-6.171V66.652H30.24ZM35.949,23.76H42.12V42.275H23.606V36.1h7.979l-11.01-11.01,4.364-4.363,11.01,11.009Zm0,0" fill="#fff"/>
</svg>
