<svg xmlns="http://www.w3.org/2000/svg" width="56.522" height="58" viewBox="0 0 56.522 58">
  <g id="instagram" transform="translate(0.08 0.456)">
    <ellipse id="Ellipse_2" data-name="Ellipse 2" cx="28" cy="29" rx="28" ry="29" transform="translate(-0.08 -0.456)" fill="#6c27b3"/>
    <path id="Path_19" data-name="Path 19" d="M150.114,126.22a47.491,47.491,0,0,1-10.422.075c-4.939-.38-12.158-2.66-14.818,1.9-4.273,7.3-2.165,16.644-1.17,24.913l14.848,14.845A28.212,28.212,0,0,0,165.2,141.308Z" transform="translate(-108.759 -111.238)" fill="#501a96"/>
    <g id="Group_134" data-name="Group 134" transform="translate(12.126 12.397)">
      <path id="Path_20" data-name="Path 20" d="M132.142,109.468H119.089a9.632,9.632,0,0,0-9.621,9.621v13.054a9.632,9.632,0,0,0,9.621,9.621h13.054a9.632,9.632,0,0,0,9.621-9.621V119.089a9.632,9.632,0,0,0-9.621-9.621Zm6.372,22.674a6.372,6.372,0,0,1-6.372,6.372H119.089a6.372,6.372,0,0,1-6.372-6.372V119.089a6.372,6.372,0,0,1,6.372-6.372h13.054a6.372,6.372,0,0,1,6.372,6.372Z" transform="translate(-109.468 -109.468)" fill="#fff"/>
      <path id="Path_21" data-name="Path 21" d="M188.555,180.2a8.353,8.353,0,1,0,8.353,8.353,8.362,8.362,0,0,0-8.353-8.353Zm0,13.456a5.1,5.1,0,1,1,5.1-5.1,5.1,5.1,0,0,1-5.1,5.1Z" transform="translate(-172.407 -172.407)" fill="#fff"/>
    </g>
    <g id="Group_135" data-name="Group 135" transform="translate(28.21 12.397)">
      <path id="Path_22" data-name="Path 22" d="M317.78,164.613a2,2,0,1,1-2-2,2,2,0,0,1,2,2Z" transform="translate(-307.347 -156.755)" fill="#d1d1d1"/>
      <path id="Path_23" data-name="Path 23" d="M262.016,109.468h-6.59v3.249h6.59a6.372,6.372,0,0,1,6.372,6.372v13.054a6.372,6.372,0,0,1-6.372,6.372h-6.59v3.249h6.59a9.632,9.632,0,0,0,9.621-9.621V119.089A9.632,9.632,0,0,0,262.016,109.468Z" transform="translate(-255.426 -109.468)" fill="#d1d1d1"/>
      <path id="Path_24" data-name="Path 24" d="M255.489,180.2l-.063,0v3.249l.063,0a5.1,5.1,0,0,1,0,10.208l-.063,0v3.249l.063,0a8.353,8.353,0,0,0,0-16.705Z" transform="translate(-255.426 -172.407)" fill="#d1d1d1"/>
    </g>
  </g>
</svg>
