<svg id="linkedin" xmlns="http://www.w3.org/2000/svg" width="33.684" height="33.684" viewBox="0 0 33.684 33.684">
  <path id="Path_572" data-name="Path 572" d="M30.25,30.628h.008V18.273c0-6.043-1.3-10.7-8.366-10.7A7.334,7.334,0,0,0,15.286,11.2h-.1V8.138h-6.7V30.626h6.975V19.491c0-2.932.556-5.767,4.187-5.767,3.577,0,3.631,3.346,3.631,5.955V30.628Z" transform="translate(3.425 3.056)" fill="#0077b5"/>
  <path id="Path_573" data-name="Path 573" d="M.4,7.977H7.38V30.465H.4Z" transform="translate(0.16 3.219)" fill="#0077b5"/>
  <path id="Path_574" data-name="Path 574" d="M4.045,0A4.064,4.064,0,1,0,8.09,4.045,4.046,4.046,0,0,0,4.045,0Z" fill="#0077b5"/>
</svg>
