<svg id="shutterstock" xmlns="http://www.w3.org/2000/svg" width="44.887" height="44.887" viewBox="0 0 44.887 44.887">
  <path id="Path_554" data-name="Path 554" d="M41.959,0H2.927A2.931,2.931,0,0,0,0,2.927V41.959a2.931,2.931,0,0,0,2.927,2.927H41.959a2.931,2.931,0,0,0,2.927-2.927V2.927A2.931,2.931,0,0,0,41.959,0Zm.976,41.959a.977.977,0,0,1-.976.976H2.927a.977.977,0,0,1-.976-.976V2.927a.977.977,0,0,1,.976-.976H41.959a.977.977,0,0,1,.976.976Zm0,0" fill="red"/>
  <path id="Path_555" data-name="Path 555" d="M81.564,70.831V64.976A.976.976,0,0,0,80.589,64H66.927A2.931,2.931,0,0,0,64,66.927V80.589a.976.976,0,0,0,.976.976h5.855a.976.976,0,0,0,.976-.976V71.806h8.782A.976.976,0,0,0,81.564,70.831Zm-1.952-.976H70.831a.976.976,0,0,0-.976.976v8.782h-3.9V66.927a.977.977,0,0,1,.976-.976H79.613Zm0,0" transform="translate(-56.194 -56.194)" fill="red"/>
  <path id="Path_556" data-name="Path 556" d="M176.573,160h-5.855a.976.976,0,0,0-.976.976v8.782H160.96a.976.976,0,0,0-.976.976v5.855a.976.976,0,0,0,.976.976h13.661a2.931,2.931,0,0,0,2.927-2.927V160.976A.976.976,0,0,0,176.573,160Zm-.976,14.637a.976.976,0,0,1-.976.976H161.936v-3.9h8.782a.976.976,0,0,0,.976-.976v-8.782h3.9Zm0,0" transform="translate(-140.47 -140.484)" fill="red"/>
</svg>
