<svg id="twitter" xmlns="http://www.w3.org/2000/svg" width="56.422" height="56.422" viewBox="0 0 56.422 56.422">
  <path id="Path_14" data-name="Path 14" d="M56.422,28.211A28.211,28.211,0,1,1,28.211,0,28.211,28.211,0,0,1,56.422,28.211Zm0,0" fill="#4a7aff"/>
  <path id="Path_15" data-name="Path 15" d="M56.422,28.211A28.211,28.211,0,1,1,28.211,0,28.211,28.211,0,0,1,56.422,28.211Zm0,0" fill="#4a7aff"/>
  <path id="Path_16" data-name="Path 16" d="M130.877,135.988a28.386,28.386,0,0,0-.45-5.044l-9.819-9.819-14.923,15.394-18.546.13,6.381,6.382-2.928.035,4.442,4.442-1.895,1.955-9.462-1.541L99.81,164.056a28.57,28.57,0,0,0,2.855.143A28.211,28.211,0,0,0,130.877,135.988Zm0,0" transform="translate(-74.455 -107.777)" fill="#0053bf"/>
  <path id="Path_17" data-name="Path 17" d="M95.624,146.819c14.333,0,22.171-11.874,22.171-22.171,0-.337-.007-.673-.022-1.007a15.868,15.868,0,0,0,3.887-4.035,15.541,15.541,0,0,1-4.475,1.226,7.818,7.818,0,0,0,3.427-4.31,15.623,15.623,0,0,1-4.948,1.891,7.8,7.8,0,0,0-13.279,7.107,22.125,22.125,0,0,1-16.061-8.141,7.8,7.8,0,0,0,2.412,10.4,7.732,7.732,0,0,1-3.529-.975c0,.033,0,.065,0,.1a7.8,7.8,0,0,0,6.251,7.639,7.783,7.783,0,0,1-3.519.134,7.8,7.8,0,0,0,7.28,5.412,15.757,15.757,0,0,1-11.536,3.227,22.059,22.059,0,0,0,11.944,3.5" transform="translate(-74.458 -103.175)" fill="#fff"/>
  <path id="Path_18" data-name="Path 18" d="M274.674,119.607a15.555,15.555,0,0,1-4.475,1.226,7.819,7.819,0,0,0,3.427-4.31,15.613,15.613,0,0,1-4.948,1.891,7.8,7.8,0,0,0-13.033,2.725v24.632c9.859-3.117,15.164-12.653,15.164-21.123,0-.337-.007-.673-.022-1.007A15.869,15.869,0,0,0,274.674,119.607Zm0,0" transform="translate(-227.473 -103.175)" fill="#dce1eb"/>
</svg>
