<svg id="download" xmlns="http://www.w3.org/2000/svg" width="6.38" height="9.57" viewBox="0 0 6.38 9.57">
  <g id="Group_31" data-name="Group 31" transform="translate(0)">
    <g id="Group_30" data-name="Group 30" transform="translate(0)">
      <path id="Path_8" data-name="Path 8" d="M88.242,7.858h0l.029.026.014.011.017.013.017.011.016.009.018.009.017.008.018.007.019.007.018,0,.02,0,.021,0,.017,0a.4.4,0,0,0,.079,0l.017,0,.021,0,.02,0,.018,0,.019-.007.018-.007.017-.008.018-.009.016-.009.017-.011.017-.013.014-.011.029-.026h0L91.6,5.067a.4.4,0,0,0-.564-.564L88.922,6.614V.4a.4.4,0,0,0-.8,0V6.614L86.014,4.5a.4.4,0,1,0-.564.564Z" transform="translate(-85.334)" fill="#1b3f4e"/>
      <path id="Path_9" data-name="Path 9" d="M91.315,469.333H85.733a.4.4,0,0,0,0,.8h5.582a.4.4,0,0,0,0-.8Z" transform="translate(-85.334 -460.561)" fill="#1b3f4e"/>
    </g>
  </g>
</svg>
