<svg xmlns="http://www.w3.org/2000/svg" width="34.411" height="34.7" viewBox="0 0 34.411 34.7">
  <g id="box" transform="translate(0 0)">
    <path id="Path_64" data-name="Path 64" d="M128.856,132.621v21.926a1.179,1.179,0,0,0,.8,1.149l16.046,5.18a1.167,1.167,0,0,0,.363.058,1.186,1.186,0,0,0,.366-.058l16.028-5.18a1.176,1.176,0,0,0,.8-1.149V132.621a1.178,1.178,0,0,0-.8-1.149l-16.047-5.18a1.179,1.179,0,0,0-.733,0l-16.027,5.18A1.175,1.175,0,0,0,128.856,132.621Zm2.415,1.658,13.432,4.353V158.02l-13.432-4.352Zm15.847,23.838V138.73l13.734-4.45v19.388Zm-1.056-29.407,12.129,3.911-12.129,3.912-12.129-3.912Zm0,0" transform="translate(-128.856 -126.234)" fill="#65cce4"/>
  </g>
</svg>
