<svg id="download" xmlns="http://www.w3.org/2000/svg" width="20.073" height="30.109" viewBox="0 0 20.073 30.109">
  <g id="Group_31" data-name="Group 31" transform="translate(0)">
    <g id="Group_30" data-name="Group 30" transform="translate(0)">
      <path id="Path_8" data-name="Path 8" d="M94.483,24.724h0c.029.029.06.056.091.082.015.012.03.022.045.034s.035.027.054.04.036.022.055.033l.051.03.057.027L94.89,25l.056.021.06.021.057.015.062.015.066.01.055.008a1.263,1.263,0,0,0,.248,0l.055-.008.066-.01.062-.015.057-.015.06-.021L95.85,25l.054-.025.057-.027.051-.03c.018-.011.037-.021.055-.033s.036-.026.054-.04.03-.022.045-.034q.048-.039.091-.082h0l8.782-8.782a1.255,1.255,0,0,0-1.774-1.774l-6.64,6.64V1.255a1.255,1.255,0,1,0-2.509,0V20.808l-6.64-6.64A1.255,1.255,0,1,0,85.7,15.942Z" transform="translate(-85.334)" fill="#fff"/>
      <path id="Path_9" data-name="Path 9" d="M104.152,469.333H86.589a1.255,1.255,0,0,0,0,2.509h17.564a1.255,1.255,0,0,0,0-2.509Z" transform="translate(-85.334 -441.733)" fill="#fff"/>
    </g>
  </g>
</svg>
