<svg xmlns="http://www.w3.org/2000/svg" width="40.424" height="34.753" viewBox="0 0 40.424 34.753">
  <g id="money" transform="translate(0 0)">
    <g id="Group_214" data-name="Group 214" transform="translate(0 0)">
      <g id="Group_213" data-name="Group 213">
        <path id="Path_59" data-name="Path 59" d="M40.368,48.253h0L32.735,29.089a.794.794,0,0,0-1.031-.444h0L.74,40.974a.778.778,0,0,0-.317.252A.785.785,0,0,0,0,41.916V62.548a.794.794,0,0,0,.794.794H34.122a.794.794,0,0,0,.794-.794V51.279l5.009-1.995A.794.794,0,0,0,40.368,48.253Zm-7.039,13.5H1.587V42.709H33.329ZM13.24,41.126l13.287-5.294a6.313,6.313,0,0,0,4.549,1.962L32.4,41.126Zm21.676,8.449V41.916a.794.794,0,0,0-.794-.794H34.11L32.428,36.9a.657.657,0,0,0-.065-.1.784.784,0,0,0-.829-.611A4.745,4.745,0,0,1,27.373,34.4a.786.786,0,0,0-1.018-.178.892.892,0,0,0-.112.021L10.022,40.7a.784.784,0,0,0-.436.424H4.66L31.554,30.413,38.6,48.105Z" transform="translate(0 -28.588)" fill="#66c478"/>
        <path id="Path_60" data-name="Path 60" d="M32.567,199.046a4.745,4.745,0,0,1,3.2,3.2.794.794,0,0,0,.76.567.73.73,0,0,0,.122-.018.74.74,0,0,0,.109.022H55.806a.683.683,0,0,0,.1-.02.739.739,0,0,0,.893-.543v0a4.744,4.744,0,0,1,3.2-3.2.783.783,0,0,0,.544-.873.8.8,0,0,0,.023-.117v-6.348a.717.717,0,0,0-.024-.117.782.782,0,0,0-.544-.873,4.74,4.74,0,0,1-3.2-3.2.784.784,0,0,0-.879-.544.754.754,0,0,0-.112-.022H36.761a.75.75,0,0,0-.118.024.784.784,0,0,0-.873.544,4.745,4.745,0,0,1-3.2,3.2.783.783,0,0,0-.544.873.8.8,0,0,0-.022.117v6.348a.733.733,0,0,0,.022.11A.786.786,0,0,0,32.567,199.046Zm1.02-7.017a6.3,6.3,0,0,0,3.5-3.5h18.4a6.3,6.3,0,0,0,3.5,3.5v5.7a6.3,6.3,0,0,0-3.5,3.5h-18.4a6.3,6.3,0,0,0-3.5-3.5Z" transform="translate(-28.826 -171.237)" fill="#66c478"/>
        <path id="Path_61" data-name="Path 61" d="M132.761,228.467A4.761,4.761,0,1,0,128,223.706,4.761,4.761,0,0,0,132.761,228.467Zm0-7.935a3.174,3.174,0,1,1-3.174,3.174A3.174,3.174,0,0,1,132.761,220.532Z" transform="translate(-115.303 -200.063)" fill="#66c478"/>
        <path id="Path_62" data-name="Path 62" d="M77.19,257.326a1.19,1.19,0,1,0-1.19-1.19A1.19,1.19,0,0,0,77.19,257.326Zm0-1.587a.4.4,0,1,1-.4.4A.4.4,0,0,1,77.19,255.739Z" transform="translate(-68.461 -232.492)" fill="#66c478"/>
        <path id="Path_63" data-name="Path 63" d="M253.19,257.326a1.19,1.19,0,1,0-1.19-1.19A1.19,1.19,0,0,0,253.19,257.326Zm0-1.587a.4.4,0,1,1-.4.4A.4.4,0,0,1,253.19,255.739Z" transform="translate(-227.003 -232.492)" fill="#66c478"/>
      </g>
    </g>
  </g>
</svg>
