<svg xmlns="http://www.w3.org/2000/svg" width="13.195" height="14.5" viewBox="0 0 13.195 14.5">
  <g id="Group_146" data-name="Group 146" transform="translate(-702.354 -1110.75)">
    <g id="share_1_" data-name="share (1)" transform="translate(679.305 1110.75)">
      <g id="Group_141" data-name="Group 141" transform="translate(23.049)">
        <g id="Group_140" data-name="Group 140" transform="translate(0)">
          <path id="Path_25" data-name="Path 25" d="M33.866,9.744a2.374,2.374,0,0,0-1.868.91L27.633,8.135a2.37,2.37,0,0,0,0-1.769L32,3.846a2.372,2.372,0,1,0-.338-.583L27.3,5.782a2.378,2.378,0,1,0,0,2.936l4.364,2.52a2.377,2.377,0,1,0,2.206-1.493Zm0-9.07a1.7,1.7,0,1,1-1.7,1.7A1.706,1.706,0,0,1,33.866.674ZM25.427,8.954a1.7,1.7,0,1,1,1.7-1.7A1.706,1.706,0,0,1,25.427,8.954Zm8.439,4.872a1.7,1.7,0,1,1,1.7-1.7A1.706,1.706,0,0,1,33.866,13.826Z" transform="translate(-23.049)" fill="#143340"/>
        </g>
      </g>
      <g id="Group_143" data-name="Group 143" transform="translate(24.424 6.248)">
        <g id="Group_142" data-name="Group 142">
          <path id="Path_26" data-name="Path 26" d="M72.619,220.606a1,1,0,0,0-1,1,.337.337,0,0,0,.674,0,.328.328,0,0,1,.328-.328.337.337,0,1,0,0-.674Z" transform="translate(-71.617 -220.606)" fill="#143340"/>
        </g>
      </g>
    </g>
  </g>
</svg>
