<svg xmlns="http://www.w3.org/2000/svg" width="41.684" height="33.868" viewBox="0 0 41.684 33.868">
  <path id="twitter_1_" data-name="twitter (1)" d="M41.684,52.009a17.817,17.817,0,0,1-4.924,1.35,8.5,8.5,0,0,0,3.759-4.723A17.078,17.078,0,0,1,35.1,50.7a8.545,8.545,0,0,0-14.782,5.844,8.8,8.8,0,0,0,.2,1.949A24.188,24.188,0,0,1,2.9,49.558,8.548,8.548,0,0,0,5.528,60.979a8.439,8.439,0,0,1-3.861-1.053v.094a8.585,8.585,0,0,0,6.847,8.4,8.529,8.529,0,0,1-2.241.281,7.555,7.555,0,0,1-1.618-.146,8.627,8.627,0,0,0,7.985,5.953,17.171,17.171,0,0,1-10.6,3.645A16.005,16.005,0,0,1,0,78.033a24.058,24.058,0,0,0,13.11,3.835c15.725,0,24.322-13.026,24.322-24.317,0-.378-.013-.742-.031-1.1A17.048,17.048,0,0,0,41.684,52.009Z" transform="translate(0 -48)" fill="#03a9f4"/>
</svg>
